<svg xmlns="http://www.w3.org/2000/svg" xmlns:xlink="http://www.w3.org/1999/xlink" version="1.2" baseProfile="tiny" id="Layer_1" x="0px" y="0px" width="100px" height="100px" viewBox="0 0 100 100" xml:space="preserve">
<g>
	<polygon fill-rule="evenodd" points="79.552,36.363 79.552,31.818 70.461,31.818 70.461,36.363 70.461,50 75.006,50 75.006,36.363    79.545,36.363 79.545,40.909 84.09,40.909 84.09,36.363  "/>
	<rect x="34.101" y="0" fill-rule="evenodd" width="9.091" height="4.545"/>
	<rect x="20.445" y="59.09" fill-rule="evenodd" width="4.546" height="9.091"/>
	<polygon fill-rule="evenodd" points="34.082,86.363 34.082,77.272 29.537,77.272 29.537,68.181 24.991,68.181 24.991,77.272    29.536,77.272 29.536,86.363  "/>
	<polygon fill-rule="evenodd" points="79.545,86.363 75.006,86.363 75.006,95.454 38.646,95.454 38.646,86.363 34.101,86.363    34.101,95.454 34.082,95.454 34.082,100 34.101,100 38.646,100 75.006,100 79.537,100 79.552,100 79.552,86.363 84.09,86.363    84.09,72.727 79.545,72.727  "/>
	<polygon fill-rule="evenodd" points="15.909,45.454 24.982,45.454 24.982,40.909 15.909,40.909 15.891,40.909 11.364,40.909    11.364,54.545 15.891,54.545 15.891,59.09 20.436,59.09 20.436,54.545 15.909,54.545  "/>
	<polygon fill-rule="evenodd" points="56.799,45.454 61.345,45.454 61.345,31.818 70.455,31.818 70.455,27.272 56.819,27.272    56.819,31.818 56.799,31.818  "/>
	<polygon fill-rule="evenodd" points="47.746,27.272 56.799,27.272 56.799,22.727 47.746,22.727 47.746,4.545 43.201,4.545    43.201,45.454 47.746,45.454  "/>
	<polygon fill-rule="evenodd" points="29.537,54.545 34.082,54.545 34.082,4.545 29.537,4.545 29.537,45.454 24.991,45.454    24.991,50 29.537,50  "/>
	<rect x="84.09" y="40.909" fill-rule="evenodd" width="4.547" height="31.818"/>
</g>
</svg>